<svg xmlns="http://www.w3.org/2000/svg" viewBox="0 0 73 24">
    <path fill="#FFF" fill-rule="evenodd" d="M13.8876404 11.7033708C13.8876404 12.871916 13.7438217 13.9460625 13.4561798 14.9258427 13.1685379 15.9056229 12.7505645 16.7550526 12.2022472 17.4741573 11.6539298 18.193262 10.9707906 18.7505598 10.152809 19.1460674 9.33482737 19.541575 8.39551092 19.7393258 7.33483146 19.7393258 6.52583865 19.7393258 5.80225038 19.5370807 5.16404494 19.1325843 4.52583951 18.7280879 4.02696809 18.2112391 3.66741573 17.5820225L3.66741573 24 2.53483146 24C2.21123434 24 1.89663074 23.9415736 1.59101124 23.8247191 1.28539173 23.7078646 1.01573151 23.5415741.782022472 23.3258427.548313438 23.1101113.359551281 22.8494397.215730337 22.5438202.0719093933 22.2382007 0 21.8876424 0 21.4921348L0 12.7011236C0 11.4966232.139324449 10.3910163.417977528 9.38426966.696630607 8.37752306 1.1325813 7.51461034 1.7258427 6.79550562 2.31910409 6.0764009 3.07415272 5.5191031 3.99101124 5.12359551 4.90786975 4.72808791 6.004488 4.53033708 7.28089888 4.53033708 8.25169025 4.53033708 9.14156899 4.73258225 9.9505618 5.13707865 10.7595546 5.54157506 11.4561769 6.07640117 12.0404494 6.74157303 12.624722 7.4067449 13.0786501 8.1707822 13.4022472 9.03370787 13.7258443 9.89663353 13.8876404 10.7865123 13.8876404 11.7033708zM10.1662921 12.647191C10.1662921 10.9213397 9.8831489 9.67191398 9.31685393 8.8988764 8.75055897 8.12583883 7.88315191 7.73932584 6.71460674 7.73932584 5.70786013 7.73932584 4.93932849 8.13033317 4.40898876 8.91235955 3.87864903 9.69438593 3.61348315 10.7146004 3.61348315 11.9730337 3.61348315 13.4292208 3.94156975 14.552805 4.59775281 15.3438202 5.25393587 16.1348354 6.12134292 16.5303371 7.2 16.5303371 8.08090328 16.5303371 8.79550288 16.1752844 9.34382022 15.4651685 9.89213757 14.7550526 10.1662921 13.8157362 10.1662921 12.647191zM26.7448361 19.4157303C25.9897761 19.4157303 25.3920293 19.2089908 24.9515777 18.7955056 24.511126 18.3820204 24.2909035 17.7797792 24.2909035 16.988764L24.2909035 11.0561798C24.2909035 10.4629184 24.2144998 9.95505829 24.06169 9.53258427 23.9088803 9.11011025 23.7021408 8.76854063 23.4414653 8.50786517 23.1807898 8.24718971 22.8751749 8.05393321 22.5246114 7.92808989 22.1740478 7.80224656 21.8010178 7.73932584 21.4055102 7.73932584 21.1178683 7.73932584 20.8212421 7.79775222 20.5156226 7.91460674 20.2100031 8.03146126 19.9268599 8.22471775 19.6661844 8.49438202 19.4055089 8.76404629 19.1942751 9.11460458 19.0324765 9.54606742 18.870678 9.97753025 18.7897799 10.5168507 18.7897799 11.1640449L18.7897799 19.4157303 17.603263 19.4157303C16.7403374 19.4157303 16.1111302 19.2000022 15.7156226 18.7685393 15.320115 18.3370765 15.1223642 17.743824 15.1223642 16.988764L15.1223642 0 16.2549484 0C17.1178741 0 17.7605643.21572818 18.1830383.647191011 18.6055123 1.07865384 18.8167462 1.63595164 18.8167462 2.31910112L18.8167462 6.47191011C18.9425895 6.2561787 19.1178687 6.03595618 19.3425889 5.81123596 19.5673091 5.58651573 19.8144977 5.37977622 20.0841619 5.19101124 20.3538262 5.00224625 20.6504524 4.84494445 20.9740496 4.71910112 21.2976467 4.5932578 21.6302276 4.53033708 21.9718024 4.53033708 23.8594523 4.53033708 25.3246061 5.07415187 26.367308 6.16179775 27.4100098 7.24944364 27.9313529 8.82695596 27.9313529 10.894382L27.9313529 19.4157303 26.7448361 19.4157303zM43.5930429 11.7033708C43.5930429 12.871916 43.4492242 13.9460625 43.1615823 14.9258427 42.8739404 15.9056229 42.455967 16.7550526 41.9076497 17.4741573 41.3593323 18.193262 40.6761931 18.7505598 39.8582115 19.1460674 39.0402299 19.541575 38.1009134 19.7393258 37.040234 19.7393258 36.2312411 19.7393258 35.5076529 19.5370807 34.8694474 19.1325843 34.231242 18.7280879 33.7323706 18.2112391 33.3728182 17.5820225L33.3728182 24 32.240234 24C31.9166368 24 31.6020332 23.9415736 31.2964137 23.8247191 30.9907942 23.7078646 30.721134 23.5415741 30.487425 23.3258427 30.2537159 23.1101113 30.0649538 22.8494397 29.9211328 22.5438202 29.7773119 22.2382007 29.7054025 21.8876424 29.7054025 21.4921348L29.7054025 12.7011236C29.7054025 11.4966232 29.8447269 10.3910163 30.12338 9.38426966 30.4020331 8.37752306 30.8379838 7.51461034 31.4312452 6.79550562 32.0245066 6.0764009 32.7795552 5.5191031 33.6964137 5.12359551 34.6132722 4.72808791 35.7098905 4.53033708 36.9863014 4.53033708 37.9570927 4.53033708 38.8469715 4.73258225 39.6559643 5.13707865 40.4649571 5.54157506 41.1615793 6.07640117 41.7458519 6.74157303 42.3301245 7.4067449 42.7840526 8.1707822 43.1076497 9.03370787 43.4312468 9.89663353 43.5930429 10.7865123 43.5930429 11.7033708zM39.8716946 12.647191C39.8716946 10.9213397 39.5885514 9.67191398 39.0222564 8.8988764 38.4559615 8.12583883 37.5885544 7.73932584 36.4200092 7.73932584 35.4132626 7.73932584 34.644731 8.13033317 34.1143913 8.91235955 33.5840515 9.69438593 33.3188856 10.7146004 33.3188856 11.9730337 33.3188856 13.4292208 33.6469722 14.552805 34.3031553 15.3438202 34.9593384 16.1348354 35.8267454 16.5303371 36.9054025 16.5303371 37.7863058 16.5303371 38.5009054 16.1752844 39.0492227 15.4651685 39.5975401 14.7550526 39.8716946 13.8157362 39.8716946 12.647191zM58.149115 13.6988764C58.149115 14.6337125 57.9783302 15.4606706 57.6367554 16.1797753 57.2951807 16.89888 56.832264 17.5056155 56.2479914 18 55.6637188 18.4943845 54.9895682 18.8674145 54.2255195 19.1191011 53.4614707 19.3707878 52.6569844 19.4966292 51.8120363 19.4966292L49.8165307 19.4966292C46.3828057 19.4966292 44.6659689 18.0314753 44.6659689 15.1011236L44.6659689 1.6988764C44.8817003 1.62696593 45.1873152 1.54157353 45.5828228 1.44269663 45.9783304 1.34381973 46.4052925 1.24943865 46.8637217 1.15955056 47.322151 1.06966247 47.789562.997753079 48.2659689.943820225 48.7423758.889887371 49.1693378.862921348 49.5468678.862921348L51.78507.862921348C52.6659689.862921348 53.474954.975279775 54.2120363 1.2 54.9491187 1.42472022 55.5873145 1.74831249 56.1266431 2.17078652 56.6659689 2.59326054 57.083945 3.10561497 57.3805757 3.70786517 57.6772063 4.31011537 57.8255195 4.98876027 57.8255195 5.74382022 57.8255195 6.76854445 57.5648479 7.60898548 57.043497 8.26516854 56.5221461 8.9213516 55.8030521 9.38426831 54.8861936 9.65393258 55.3536117 9.77977591 55.7850681 9.98651542 56.1805757 10.2741573 56.5760832 10.5617992 56.9221472 10.8898858 57.2187779 11.258427 57.5154086 11.6269681 57.7446198 12.0269641 57.9064183 12.458427 58.0682169 12.8898898 58.149115 13.3033688 58.149115 13.6988764zM54.1311374 6.06741573C54.1311374 5.67190813 54.045745 5.33483285 53.8749577 5.05617978 53.7041703 4.7775267 53.4839478 4.55730418 53.2142835 4.39550562 52.9446192 4.23370706 52.6390043 4.11685429 52.2974296 4.04494382 51.9558548 3.97303335 51.6142852 3.93707865 51.2727105 3.93707865L49.8974296 3.93707865C49.6637205 3.93707865 49.403049 3.95955034 49.1154071 4.00449438 48.8277652 4.04943843 48.558105 4.08988746 48.3064183 4.1258427L48.3064183 8.30561798 51.137879 8.30561798C51.9648494 8.30561798 52.6704604 8.13033883 53.254733 7.77977528 53.8390055 7.42921173 54.1311374 6.85843092 54.1311374 6.06741573zM54.4277667 13.8067416C54.4277667 12.799995 54.1715894 12.1078671 53.6592273 11.7303371 53.1468652 11.3528071 52.3513676 11.1640449 51.2727105 11.1640449L48.3333846 11.1640449 48.3333846 14.9662921C48.3333846 15.2898893 48.4861921 15.5640438 48.7918116 15.788764 49.0974311 16.0134843 49.4839441 16.1258427 49.9513622 16.1258427L51.4614745 16.1258427C52.4682211 16.1258427 53.2142811 15.9146089 53.6996768 15.4921348 54.1850725 15.0696608 54.4277667 14.5078687 54.4277667 13.8067416zM72.7321533 13.6988764C72.7321533 14.6337125 72.5613685 15.4606706 72.2197938 16.1797753 71.878219 16.89888 71.4153023 17.5056155 70.8310297 18 70.2467571 18.4943845 69.5726066 18.8674145 68.8085578 19.1191011 68.044509 19.3707878 67.2400227 19.4966292 66.3950746 19.4966292L64.399569 19.4966292C60.965844 19.4966292 59.2490072 18.0314753 59.2490072 15.1011236L59.2490072 1.6988764C59.4647386 1.62696593 59.7703536 1.54157353 60.1658612 1.44269663 60.5613688 1.34381973 60.9883308 1.24943865 61.44676 1.15955056 61.9051893 1.06966247 62.3726004.997753079 62.8490072.943820225 63.3254141.889887371 63.7523761.862921348 64.1299061.862921348L66.3681084.862921348C67.2490072.862921348 68.0579923.975279775 68.7950746 1.2 69.532157 1.42472022 70.1703529 1.74831249 70.7096814 2.17078652 71.2490072 2.59326054 71.6669833 3.10561497 71.963614 3.70786517 72.2602447 4.31011537 72.4085578 4.98876027 72.4085578 5.74382022 72.4085578 6.76854445 72.1478862 7.60898548 71.6265353 8.26516854 71.1051844 8.9213516 70.3860905 9.38426831 69.469232 9.65393258 69.93665 9.77977591 70.3681064 9.98651542 70.763614 10.2741573 71.1591216 10.5617992 71.5051855 10.8898858 71.8018162 11.258427 72.0984469 11.6269681 72.3276581 12.0269641 72.4894567 12.458427 72.6512552 12.8898898 72.7321533 13.3033688 72.7321533 13.6988764zM68.7141758 6.06741573C68.7141758 5.67190813 68.6287834 5.33483285 68.457996 5.05617978 68.2872086 4.7775267 68.0669861 4.55730418 67.7973218 4.39550562 67.5276576 4.23370706 67.2220426 4.11685429 66.8804679 4.04494382 66.5388932 3.97303335 66.1973235 3.93707865 65.8557488 3.93707865L64.4804679 3.93707865C64.2467589 3.93707865 63.9860873 3.95955034 63.6984454 4.00449438 63.4108035 4.04943843 63.1411433 4.08988746 62.8894567 4.1258427L62.8894567 8.30561798 65.7209173 8.30561798C66.5478878 8.30561798 67.2534987 8.13033883 67.8377713 7.77977528 68.4220439 7.42921173 68.7141758 6.85843092 68.7141758 6.06741573zM69.010805 13.8067416C69.010805 12.799995 68.7546278 12.1078671 68.2422657 11.7303371 67.7299035 11.3528071 66.9344059 11.1640449 65.8557488 11.1640449L62.916423 11.1640449 62.916423 14.9662921C62.916423 15.2898893 63.0692304 15.5640438 63.3748499 15.788764 63.6804694 16.0134843 64.0669824 16.1258427 64.5344005 16.1258427L66.0445129 16.1258427C67.0512595 16.1258427 67.7973194 15.9146089 68.2827151 15.4921348 68.7681108 15.0696608 69.010805 14.5078687 69.010805 13.8067416zM69.6021798 23.144385L69.2316076 23.144385 69.2316076 20.9304813 70.0871935 20.9304813C70.3596744 20.9304813 70.5649403 20.9803917 70.7029973 21.0802139 70.8410543 21.1800361 70.9100817 21.3422449 70.9100817 21.5668449 70.9100817 21.7664894 70.8537699 21.9126555 70.7411444 22.0053476 70.628519 22.0980397 70.4886475 22.1532976 70.3215259 22.171123L70.9536785 23.144385 70.5340599 23.144385 69.9509537 22.197861 69.6021798 22.197861 69.6021798 23.144385zM70.0163488 21.8877005C70.0853773 21.8877005 70.15168 21.8850268 70.2152589 21.8796791 70.2788377 21.8743315 70.3342414 21.8591802 70.3814714 21.8342246 70.4287014 21.809269 70.4668482 21.77451 70.4959128 21.7299465 70.5249774 21.685383 70.5395095 21.6221038 70.5395095 21.540107 70.5395095 21.4723704 70.5240692 21.418895 70.493188 21.3796791 70.4623068 21.3404633 70.4232518 21.3101605 70.3760218 21.2887701 70.3287918 21.2673796 70.2761129 21.2540107 70.2179837 21.2486631 70.1598544 21.2433155 70.1035425 21.2406417 70.0490463 21.2406417L69.6021798 21.2406417 69.6021798 21.8877005 70.0163488 21.8877005zM72 22C72 22.2994667 71.9464129 22.5721913 71.8392371 22.8181818 71.7320612 23.0641724 71.5867402 23.2745089 71.4032698 23.4491979 71.2197993 23.6238868 71.0072673 23.7593578 70.7656676 23.855615 70.5240678 23.9518721 70.2706644 24 70.0054496 24 69.7111702 24 69.4414181 23.9491984 69.1961853 23.8475936 68.9509525 23.7459888 68.740237 23.6060615 68.5640327 23.4278075 68.3878284 23.2495535 68.2497734 23.0383256 68.1498638 22.7941176 68.0499541 22.5499097 68 22.2852064 68 22 68 21.7005333 68.0535871 21.4278087 68.1607629 21.1818182 68.2679388 20.9358276 68.4132598 20.7254911 68.5967302 20.5508021 68.7802007 20.3761132 68.9936409 20.2406422 69.2370572 20.144385 69.4804735 20.0481279 69.7366017 20 70.0054496 20 70.2706644 20 70.5240678 20.0481279 70.7656676 20.144385 71.0072673 20.2406422 71.2197993 20.3761132 71.4032698 20.5508021 71.5867402 20.7254911 71.7320612 20.9358276 71.8392371 21.1818182 71.9464129 21.4278087 72 21.7005333 72 22zM71.5640327 22C71.5640327 21.7575745 71.5240694 21.5347604 71.4441417 21.3315508 71.364214 21.1283412 71.2534067 20.9536549 71.1117166 20.8074866 70.9700265 20.6613183 70.8047239 20.5481287 70.6158038 20.4679144 70.4268837 20.3877001 70.2234343 20.3475936 70.0054496 20.3475936 69.7838318 20.3475936 69.5776576 20.3877001 69.386921 20.4679144 69.1961843 20.5481287 69.0299735 20.6613183 68.8882834 20.8074866 68.7465933 20.9536549 68.635786 21.1283412 68.5558583 21.3315508 68.4759306 21.5347604 68.4359673 21.7575745 68.4359673 22 68.4359673 22.2281651 68.4722975 22.4420667 68.5449591 22.6417112 68.6176207 22.8413557 68.7220702 23.016042 68.8583106 23.1657754 68.9945511 23.3155088 69.1589454 23.4340459 69.3514986 23.5213904 69.5440518 23.6087348 69.7620333 23.6524064 70.0054496 23.6524064 70.2234343 23.6524064 70.4268837 23.6122999 70.6158038 23.5320856 70.8047239 23.4518713 70.9700265 23.3386817 71.1117166 23.1925134 71.2534067 23.0463451 71.364214 22.87255 71.4441417 22.671123 71.5240694 22.469696 71.5640327 22.2459905 71.5640327 22z"/>
</svg>
