<svg xmlns="http://www.w3.org/2000/svg" viewBox="0 0 146 48">
    <path fill="#29303D" fill-rule="evenodd" d="M140.20436,46.2887701 L139.463215,46.2887701 L139.463215,41.8609626 L141.174387,41.8609626 C141.719349,41.8609626 142.129881,41.9607833 142.405995,42.1604278 C142.682109,42.3600723 142.820163,42.6844897 142.820163,43.1336898 C142.820163,43.5329788 142.70754,43.825311 142.482289,44.0106952 C142.257038,44.1960794 141.977295,44.3065952 141.643052,44.342246 L142.907357,46.2887701 L142.06812,46.2887701 L140.901907,44.3957219 L140.20436,44.3957219 L140.20436,46.2887701 Z M141.032698,43.7754011 C141.170755,43.7754011 141.30336,43.7700535 141.430518,43.7593583 C141.557675,43.748663 141.668483,43.7183603 141.762943,43.6684492 C141.857403,43.6185381 141.933696,43.5490201 141.991826,43.459893 C142.049955,43.370766 142.079019,43.2442076 142.079019,43.0802139 C142.079019,42.9447409 142.048138,42.8377901 141.986376,42.7593583 C141.924614,42.6809265 141.846504,42.6203211 141.752044,42.5775401 C141.657584,42.5347591 141.552226,42.5080214 141.435967,42.4973262 C141.319709,42.486631 141.207085,42.4812834 141.098093,42.4812834 L140.20436,42.4812834 L140.20436,43.7754011 L141.032698,43.7754011 Z M145,44 C145,44.5989335 144.892826,45.1443826 144.678474,45.6363636 C144.464122,46.1283447 144.17348,46.5490179 143.80654,46.8983957 C143.439599,47.2477736 143.014535,47.5187156 142.531335,47.7112299 C142.048136,47.9037443 141.541329,48 141.010899,48 C140.42234,48 139.882836,47.8983967 139.392371,47.6951872 C138.901905,47.4919776 138.480474,47.212123 138.128065,46.855615 C137.775657,46.499107 137.499547,46.0766513 137.299728,45.5882353 C137.099908,45.0998193 137,44.5704128 137,44 C137,43.4010665 137.107174,42.8556174 137.321526,42.3636364 C137.535878,41.8716553 137.82652,41.4509821 138.19346,41.1016043 C138.560401,40.7522264 138.987282,40.4812844 139.474114,40.2887701 C139.960947,40.0962557 140.473203,40 141.010899,40 C141.541329,40 142.048136,40.0962557 142.531335,40.2887701 C143.014535,40.4812844 143.439599,40.7522264 143.80654,41.1016043 C144.17348,41.4509821 144.464122,41.8716553 144.678474,42.3636364 C144.892826,42.8556174 145,43.4010665 145,44 Z M144.128065,44 C144.128065,43.5151491 144.048139,43.0695207 143.888283,42.6631016 C143.728428,42.2566825 143.506813,41.9073098 143.223433,41.6149733 C142.940053,41.3226367 142.609448,41.0962575 142.231608,40.9358289 C141.853767,40.7754003 141.446869,40.6951872 141.010899,40.6951872 C140.567664,40.6951872 140.155315,40.7754003 139.773842,40.9358289 C139.392369,41.0962575 139.059947,41.3226367 138.776567,41.6149733 C138.493187,41.9073098 138.271572,42.2566825 138.111717,42.6631016 C137.951861,43.0695207 137.871935,43.5151491 137.871935,44 C137.871935,44.4563303 137.944595,44.8841335 138.089918,45.2834225 C138.235241,45.6827114 138.44414,46.0320841 138.716621,46.3315508 C138.989102,46.6310175 139.317891,46.8680918 139.702997,47.0427807 C140.088104,47.2174697 140.524067,47.3048128 141.010899,47.3048128 C141.446869,47.3048128 141.853767,47.2245997 142.231608,47.0641711 C142.609448,46.9037425 142.940053,46.6773633 143.223433,46.3850267 C143.506813,46.0926902 143.728428,45.7451001 143.888283,45.342246 C144.048139,44.9393919 144.128065,44.4919811 144.128065,44 Z M27.7752809,23.4067416 C27.7752809,25.7438319 27.4876433,27.892125 26.9123596,29.8516854 C26.3370758,31.8112458 25.5011291,33.5101052 24.4044944,34.9483146 C23.3078597,36.386524 21.9415812,37.5011196 20.305618,38.2921348 C18.6696547,39.08315 16.7910218,39.4786517 14.6696629,39.4786517 C13.0516773,39.4786517 11.6045008,39.0741613 10.3280899,38.2651685 C9.05167901,37.4561757 8.05393618,36.4224782 7.33483146,35.1640449 L7.33483146,48 L5.06966292,48 C4.42246867,48 3.79326148,47.8831472 3.18202247,47.6494382 C2.57078346,47.4157292 2.03146301,47.0831482 1.56404494,46.6516854 C1.09662688,46.2202226 0.719102562,45.6988795 0.431460674,45.0876404 C0.143818787,44.4764014 -1.42108547e-14,43.7752849 -1.42108547e-14,42.9842697 L-1.42108547e-14,25.4022472 C-1.42108547e-14,22.9932464 0.278648899,20.7820325 0.835955056,18.7685393 C1.39326121,16.7550461 2.26516261,15.0292207 3.45168539,13.5910112 C4.63820818,12.1528018 6.14830544,11.0382062 7.98202247,10.247191 C9.81573951,9.45617582 12.008976,9.06067416 14.5617978,9.06067416 C16.5033805,9.06067416 18.283138,9.46516449 19.9011236,10.2741573 C21.5191092,11.0831501 22.9123537,12.1528023 24.0808989,13.4831461 C25.249444,14.8134898 26.1573001,16.3415644 26.8044944,18.0674157 C27.4516886,19.7932671 27.7752809,21.5730245 27.7752809,23.4067416 Z M20.3325843,25.294382 C20.3325843,21.8426794 19.7662978,19.343828 18.6337079,17.7977528 C17.5011179,16.2516777 15.7663038,15.4786517 13.4292135,15.4786517 C11.4157203,15.4786517 9.87865699,16.2606663 8.81797753,17.8247191 C7.75729807,19.3887719 7.22696629,21.4292009 7.22696629,23.9460674 C7.22696629,26.8584415 7.88313951,29.1056101 9.19550562,30.6876404 C10.5078717,32.2696708 12.2426858,33.0606742 14.4,33.0606742 C16.1618066,33.0606742 17.5910058,32.3505689 18.6876404,30.9303371 C19.7842751,29.5101053 20.3325843,27.6314724 20.3325843,25.294382 Z M53.4896722,38.8314607 C51.9795522,38.8314607 50.7840586,38.4179817 49.9031553,37.5910112 C49.022252,36.7640408 48.581807,35.5595585 48.581807,33.9775281 L48.581807,22.1123596 C48.581807,20.9258368 48.4289995,19.9101166 48.12338,19.0651685 C47.8177605,18.2202205 47.4042815,17.5370813 46.8829306,17.0157303 C46.3615797,16.4943794 45.7503498,16.1078664 45.0492227,15.8561798 C44.3480956,15.6044931 43.6020357,15.4786517 42.8110205,15.4786517 C42.2357367,15.4786517 41.6424842,15.5955044 41.0312452,15.8292135 C40.4200062,16.0629225 39.8537197,16.4494355 39.3323688,16.988764 C38.8110179,17.5280926 38.3885502,18.2292092 38.0649531,19.0921348 C37.7413559,19.9550605 37.5795598,21.0337014 37.5795598,22.3280899 L37.5795598,38.8314607 L35.2065261,38.8314607 C33.4806748,38.8314607 32.2222604,38.4000043 31.4312452,37.5370787 C30.64023,36.674153 30.2447283,35.487648 30.2447283,33.9775281 L30.2447283,0 L32.5098969,0 C34.2357482,0 35.5211286,0.43145636 36.3660767,1.29438202 C37.2110247,2.15730769 37.6334924,3.27190328 37.6334924,4.63820225 L37.6334924,12.9438202 C37.885179,12.5123574 38.2357373,12.0719124 38.6851778,11.6224719 C39.1346182,11.1730315 39.6289953,10.7595524 40.1683238,10.3820225 C40.7076524,10.0044925 41.3009049,9.6898889 41.9480991,9.43820225 C42.5952934,9.1865156 43.2604553,9.06067416 43.9436047,9.06067416 C47.7189045,9.06067416 50.6492123,10.1483037 52.734616,12.3235955 C54.8200197,14.4988873 55.8627059,17.6539119 55.8627059,21.788764 L55.8627059,38.8314607 L53.4896722,38.8314607 Z M87.1860859,23.4067416 C87.1860859,25.7438319 86.8984483,27.892125 86.3231645,29.8516854 C85.7478808,31.8112458 84.9119341,33.5101052 83.8152994,34.9483146 C82.7186647,36.386524 81.3523862,37.5011196 79.716423,38.2921348 C78.0804597,39.08315 76.2018268,39.4786517 74.0804679,39.4786517 C72.4624823,39.4786517 71.0153058,39.0741613 69.7388949,38.2651685 C68.462484,37.4561757 67.4647412,36.4224782 66.7456364,35.1640449 L66.7456364,48 L64.4804679,48 C63.8332737,48 63.2040665,47.8831472 62.5928275,47.6494382 C61.9815884,47.4157292 61.442268,47.0831482 60.9748499,46.6516854 C60.5074319,46.2202226 60.1299075,45.6988795 59.8422657,45.0876404 C59.5546238,44.4764014 59.410805,43.7752849 59.410805,42.9842697 L59.410805,25.4022472 C59.410805,22.9932464 59.6894539,20.7820325 60.24676,18.7685393 C60.8040662,16.7550461 61.6759676,15.0292207 62.8624904,13.5910112 C64.0490132,12.1528018 65.5591104,11.0382062 67.3928275,10.247191 C69.2265445,9.45617582 71.419781,9.06067416 73.9726027,9.06067416 C75.9141855,9.06067416 77.693943,9.46516449 79.3119286,10.2741573 C80.9299142,11.0831501 82.3231587,12.1528023 83.4917039,13.4831461 C84.660249,14.8134898 85.5681051,16.3415644 86.2152994,18.0674157 C86.8624936,19.7932671 87.1860859,21.5730245 87.1860859,23.4067416 Z M79.7433893,25.294382 C79.7433893,21.8426794 79.1771028,19.343828 78.0445129,17.7977528 C76.9119229,16.2516777 75.1771088,15.4786517 72.8400185,15.4786517 C70.8265253,15.4786517 69.289462,16.2606663 68.2287825,17.8247191 C67.1681031,19.3887719 66.6377713,21.4292009 66.6377713,23.9460674 C66.6377713,26.8584415 67.2939445,29.1056101 68.6063106,30.6876404 C69.9186767,32.2696708 71.6534908,33.0606742 73.810805,33.0606742 C75.5726115,33.0606742 77.0018107,32.3505689 78.0984454,30.9303371 C79.1950801,29.5101053 79.7433893,27.6314724 79.7433893,25.294382 Z M116.29823,27.3977528 C116.29823,29.2674251 115.95666,30.9213411 115.273511,32.3595506 C114.590361,33.79776 113.664528,35.011231 112.495983,36 C111.327438,36.988769 109.979136,37.7348289 108.451039,38.2382022 C106.922941,38.7415756 105.313969,38.9932584 103.624073,38.9932584 L99.6330614,38.9932584 C92.7656113,38.9932584 89.3319378,36.0629507 89.3319378,30.2022472 L89.3319378,3.39775281 C89.7634006,3.25393187 90.3746305,3.08314706 91.1656457,2.88539326 C91.9566609,2.68763946 92.8105849,2.4988773 93.7274434,2.31910112 C94.644302,2.13932494 95.5791241,1.99550616 96.5319378,1.88764045 C97.4847516,1.77977474 98.3386756,1.7258427 99.0937356,1.7258427 L103.57014,1.7258427 C105.331938,1.7258427 106.949908,1.95055955 108.424073,2.4 C109.898237,2.84944045 111.174629,3.49662499 112.253286,4.34157303 C113.331938,5.18652108 114.16789,6.21122993 114.761151,7.41573034 C115.354413,8.62023074 115.651039,9.97752054 115.651039,11.4876404 C115.651039,13.5370889 115.129696,15.217971 114.086994,16.5303371 C113.044292,17.8427032 111.606104,18.7685366 109.772387,19.3078652 C110.707223,19.5595518 111.570136,19.9730308 112.361151,20.5483146 C113.152166,21.1235984 113.844294,21.7797716 114.437556,22.5168539 C115.030817,23.2539363 115.48924,24.0539283 115.812837,24.9168539 C116.136434,25.7797796 116.29823,26.6067376 116.29823,27.3977528 Z M108.262275,12.1348315 C108.262275,11.3438163 108.09149,10.6696657 107.749915,10.1123596 C107.408341,9.55505339 106.967896,9.11460836 106.428567,8.79101124 C105.889238,8.46741411 105.278009,8.23370858 104.594859,8.08988764 C103.91171,7.9460667 103.22857,7.8741573 102.545421,7.8741573 L99.7948592,7.8741573 C99.3274411,7.8741573 98.806098,7.91910067 98.2308142,8.00898876 C97.6555304,8.09887685 97.11621,8.17977492 96.6128367,8.25168539 L96.6128367,16.611236 L102.275758,16.611236 C103.929699,16.611236 105.340921,16.2606777 106.509466,15.5595506 C107.678011,14.8584235 108.262275,13.7168618 108.262275,12.1348315 Z M108.855533,27.6134831 C108.855533,25.5999899 108.343179,24.2157341 107.318455,23.4606742 C106.29373,22.7056142 104.702735,22.3280899 102.545421,22.3280899 L96.6667693,22.3280899 L96.6667693,29.9325843 C96.6667693,30.5797785 96.9723842,31.1280876 97.5836232,31.5775281 C98.1948622,32.0269685 98.9678882,32.2516854 99.9027243,32.2516854 L102.922949,32.2516854 C104.936442,32.2516854 106.428562,31.8292177 107.399354,30.9842697 C108.370145,30.1393216 108.855533,29.0157373 108.855533,27.6134831 Z M145.464307,27.3977528 C145.464307,29.2674251 145.122737,30.9213411 144.439588,32.3595506 C143.756438,33.79776 142.830605,35.011231 141.662059,36 C140.493514,36.988769 139.145213,37.7348289 137.617116,38.2382022 C136.089018,38.7415756 134.480045,38.9932584 132.790149,38.9932584 L128.799138,38.9932584 C121.931688,38.9932584 118.498014,36.0629507 118.498014,30.2022472 L118.498014,3.39775281 C118.929477,3.25393187 119.540707,3.08314706 120.331722,2.88539326 C121.122738,2.68763946 121.976662,2.4988773 122.89352,2.31910112 C123.810379,2.13932494 124.745201,1.99550616 125.698014,1.88764045 C126.650828,1.77977474 127.504752,1.7258427 128.259812,1.7258427 L132.736217,1.7258427 C134.498014,1.7258427 136.115985,1.95055955 137.590149,2.4 C139.064314,2.84944045 140.340706,3.49662499 141.419363,4.34157303 C142.498014,5.18652108 143.333967,6.21122993 143.927228,7.41573034 C144.520489,8.62023074 144.817116,9.97752054 144.817116,11.4876404 C144.817116,13.5370889 144.295772,15.217971 143.253071,16.5303371 C142.210369,17.8427032 140.772181,18.7685366 138.938464,19.3078652 C139.8733,19.5595518 140.736213,19.9730308 141.527228,20.5483146 C142.318243,21.1235984 143.010371,21.7797716 143.603632,22.5168539 C144.196894,23.2539363 144.655316,24.0539283 144.978913,24.9168539 C145.30251,25.7797796 145.464307,26.6067376 145.464307,27.3977528 Z M137.428352,12.1348315 C137.428352,11.3438163 137.257567,10.6696657 136.915992,10.1123596 C136.574417,9.55505339 136.133972,9.11460836 135.594644,8.79101124 C135.055315,8.46741411 134.444085,8.23370858 133.760936,8.08988764 C133.077786,7.9460667 132.394647,7.8741573 131.711498,7.8741573 L128.960936,7.8741573 C128.493518,7.8741573 127.972175,7.91910067 127.396891,8.00898876 C126.821607,8.09887685 126.282287,8.17977492 125.778913,8.25168539 L125.778913,16.611236 L131.441835,16.611236 C133.095776,16.611236 134.506997,16.2606777 135.675543,15.5595506 C136.844088,14.8584235 137.428352,13.7168618 137.428352,12.1348315 Z M138.02161,27.6134831 C138.02161,25.5999899 137.509256,24.2157341 136.484531,23.4606742 C135.459807,22.7056142 133.868812,22.3280899 131.711498,22.3280899 L125.832846,22.3280899 L125.832846,29.9325843 C125.832846,30.5797785 126.138461,31.1280876 126.7497,31.5775281 C127.360939,32.0269685 128.133965,32.2516854 129.068801,32.2516854 L132.089026,32.2516854 C134.102519,32.2516854 135.594639,31.8292177 136.56543,30.9842697 C137.536222,30.1393216 138.02161,29.0157373 138.02161,27.6134831 Z"/>
</svg>
